<?xml version="1.0" encoding="UTF-8"?>
<svg width="352px" height="345px" viewBox="0 0 352 345" version="1.1" xmlns="http://www.w3.org/2000/svg" xmlns:xlink="http://www.w3.org/1999/xlink">
    <title>Group</title>
    <g id="guinsoolab-censer" stroke="none" stroke-width="1" fill="none" fill-rule="evenodd">
        <g id="censer-black" transform="translate(-59.000000, -63.000000)" fill="#FF3999">
            <g id="Group" transform="translate(59.263559, 63.815113)">
                <path d="M87.1171437,55.2802929 C91.7987149,46.7041698 95.529527,40.6746756 98.3095801,37.1918102 C106.391706,27.0664802 115.532631,19.9842462 121.042041,16.0920455 C139.772419,2.85970724 163.226285,0 175.736441,0 C189.581993,0 212.835846,2.64688772 234.331086,18.8549701 C239.139819,22.4809052 247.806493,27.7570629 255.028876,37.1918102 C257.501668,40.4220692 260.645454,46.4515635 264.460234,55.2802929 C241.539062,55.8605986 224.924768,57.8075211 214.617351,61.1210604 C204.309935,64.4345997 191.367047,71.9894648 175.788689,83.7856558 C158.756079,71.8748487 145.264334,64.3199835 135.313454,61.1210604 C125.362574,57.9221372 109.297137,55.9752147 87.1171437,55.2802929 Z" id="Path"></path>
                <path d="M167.229563,91.7960915 C154.327198,82.0408392 144.764037,75.8905291 138.540079,73.345161 C121.940097,66.5563844 106.229254,66.9405899 97.7498188,67.0488422 C53.885475,67.6088338 26.689749,96.1930864 18.2517581,109.848149 C10.732951,122.015711 -8.6649401,160.389437 4.42334853,195.126196 C7.78195821,204.040059 14.5791859,221.435641 28.4168993,236.156269 C34.3069859,242.422172 46.0561991,250.167974 63.6645389,259.393674 C63.9014222,237.036477 65.1265901,221.387445 67.3400425,212.446579 C71.9190016,193.950649 82.8823273,179.11945 87.1171437,171.184887 C89.4395447,166.833521 122.759334,136.842146 131.837546,127.36185 C138.83961,120.049656 150.636949,108.194403 167.229563,91.7960915 Z" id="Path-2"></path>
                <path d="M351.229563,91.7960915 C338.327198,82.0408392 328.764037,75.8905291 322.540079,73.345161 C305.940097,66.5563844 290.229254,66.9405899 281.749819,67.0488422 C237.885475,67.6088338 210.689749,96.1930864 202.251758,109.848149 C194.732951,122.015711 175.33506,160.389437 188.423349,195.126196 C191.781958,204.040059 198.579186,221.435641 212.416899,236.156269 C218.306986,242.422172 230.056199,250.167974 247.664539,259.393674 C247.901422,237.036477 249.12659,221.387445 251.340043,212.446579 C255.919002,193.950649 266.882327,179.11945 271.117144,171.184887 C273.439545,166.833521 306.759334,136.842146 315.837546,127.36185 C322.83961,120.049656 334.636949,108.194403 351.229563,91.7960915 Z" id="Path-2" transform="translate(267.614781, 163.199923) scale(-1, 1) translate(-267.614781, -163.199923) "></path>
                <path d="M100.960379,174.891349 L175.788689,249.328863 L250.655175,174.891349 C262.709668,191.578762 269.88938,204.529488 272.194312,213.743528 C279.044575,241.127673 273.255223,269.390112 267.614781,282.078041 C262.332673,293.959914 244.648722,318.109879 222.23487,330.999925 C213.167892,336.214278 197.692194,340.300075 175.807777,343.257313 C157.208916,340.961445 144.325485,338.227249 137.157482,335.054725 C108.970741,322.579406 93.3605342,303.588296 87.1171437,289.544061 C81.4541318,276.805362 72.0247795,248.453689 77.7768089,219.491702 C79.7824869,209.392932 87.5103435,194.526148 100.960379,174.891349 Z" id="Path-3"></path>
            </g>
        </g>
    </g>
</svg>